<svg width="82" height="82" viewBox="0 0 82 82" fill="none" xmlns="http://www.w3.org/2000/svg">
<path d="M39.1248 81.2496C60.7328 81.2496 78.2496 63.7328 78.2496 42.1248C78.2496 20.5168 60.7328 3 39.1248 3C17.5168 3 0 20.5168 0 42.1248C0 63.7328 17.5168 81.2496 39.1248 81.2496Z" fill="#EDEFF3"/>
<path d="M19.5944 49.3963C26.1381 49.3963 31.554 54.713 31.7166 61.221L31.7204 61.5222L31.7166 61.8226C31.5906 66.9164 28.2691 71.4999 23.378 73.0599L17.6011 74.8021C13.0182 71.7774 9.10915 67.8144 6.14746 63.1868L7.9668 57.8678C9.43303 52.9804 13.9351 49.531 19.1224 49.4002L19.5944 49.3963Z" fill="#D4DCE6"/>
<path d="M37.6999 58.9982C41.8526 57.5032 52.3175 53.3505 61.4534 44.0484C83.2137 22.4542 81.5526 0.0295305 81.5526 0.0295305C81.5526 0.0295305 59.294 -1.63156 37.5338 19.9626C25.7401 31.7563 24.079 39.7295 22.584 43.7161L37.6999 58.9982Z" fill="#193566"/>
<path d="M57.6328 31.0919C61.4859 31.0919 64.6094 27.9684 64.6094 24.1153C64.6094 20.2622 61.4859 17.1387 57.6328 17.1387C53.7798 17.1387 50.6562 20.2622 50.6562 24.1153C50.6562 27.9684 53.7798 31.0919 57.6328 31.0919Z" fill="white"/>
<path d="M54.9782 49.7206L55.1416 55.1777C55.1416 57.171 54.4772 58.9982 53.3144 60.4932L42.019 73.4496L37.7002 58.9982L38.7653 58.6055L39.2726 58.4116C42.8566 57.025 48.8211 54.3658 54.9782 49.7206ZM45.029 36.2701L45.1751 36.4074C46.5039 37.7363 46.5039 40.0618 45.1751 41.3907L26.4048 57.6693L23.9132 55.1777L40.1918 36.4074C41.4258 35.1734 43.5191 35.0853 44.8758 36.143L45.029 36.2701ZM26.4048 26.4409L31.5808 26.5957C25.0808 34.7939 23.7795 40.529 22.5843 43.7162L22.9108 44.0459L8.13281 39.5634L21.0893 28.2681C22.4963 27.1737 24.1977 26.5207 26.0548 26.4477L26.4048 26.4409Z" fill="#000F38"/>
</svg>
