<svg width="79" height="109" viewBox="0 0 79 109" fill="none" xmlns="http://www.w3.org/2000/svg">
<path d="M39.1248 108.25C60.7328 108.25 78.2496 90.7328 78.2496 69.1248C78.2496 47.5168 60.7328 30 39.1248 30C17.5168 30 0 47.5168 0 69.1248C0 90.7328 17.5168 108.25 39.1248 108.25Z" fill="#EDEFF3"/>
<path d="M30.4855 44.1289C32.1092 44.1289 33.7329 44.8105 34.8738 45.8517L35.0701 46.0392L61.8136 72.5916C64.2363 75.0144 64.2954 79.0735 61.9909 81.3987L61.8136 81.5698L44.4303 98.9531C42.0091 101.374 38.3167 101.435 35.8319 99.1347L35.6431 98.9531L8.70861 68.9622L0 68.9626C0.0383306 59.5205 3.42134 50.8675 9.02563 44.127L30.4855 44.1289Z" fill="#D4DCE6"/>
<path d="M31.0592 19.8666C31.6208 24.3595 35.3013 28.1186 39.7633 28.8065L40.0374 28.8448C35.5445 29.4064 31.7854 33.0869 31.0975 37.5488L31.0592 37.823C30.4976 33.3301 26.8172 29.571 22.3552 28.8831L22.0811 28.8448C26.7572 28.0966 30.3344 24.6012 31.0195 20.1519L31.0592 19.8666ZM45.7682 0C46.5323 6.1128 51.3079 10.8884 57.4207 11.6525C51.3079 12.4166 46.5323 17.1923 45.7682 23.3051C45.0041 17.1923 40.2284 12.4166 34.1156 11.6525C40.2284 10.8884 45.0041 6.1128 45.7682 0Z" fill="#000F38"/>
<path d="M19.994 70.895L20.1707 71.0634L20.3391 71.2402C22.0792 73.1579 22.0231 76.088 20.1707 77.9403C22.0231 76.088 24.9532 76.0318 26.8709 77.7719L27.0476 77.9403L27.216 78.1171C28.9561 80.0348 28.9 82.9649 27.0476 84.8172C28.9 82.9649 31.8301 82.9087 33.7478 84.6488L33.9245 84.8172L34.0929 84.994C35.6335 86.6918 35.7661 89.1833 34.4907 91.0177C36.3323 89.6565 38.8922 89.7623 40.6252 91.3352L40.8014 91.5031L40.9624 91.6915C42.467 93.5454 42.467 96.3377 40.9624 98.1917L40.8014 98.38L39.6553 99.5262C37.0461 101.949 33.1643 102.008 30.6705 99.7034L12.1477 81.3788C9.72489 78.7697 9.6658 74.8878 11.9704 72.394L12.1477 72.2096L13.2938 71.0634C15.1462 69.2111 18.0763 69.1549 19.994 70.895ZM69.0651 43.9372C74.6819 50.6069 78.1108 59.1799 78.2457 68.5501L78.2499 69.1538L67.1629 69.1532L62.97 74.1865C62.6762 73.6086 62.291 73.0684 61.8142 72.5916L46.4218 57.3089L45.7681 57.3096L36.4078 66.6698C33.1604 70.1083 28.1938 70.1083 24.9463 66.8609L21.1258 63.0404L38.3181 45.8481C39.4642 44.702 41.1835 43.9379 42.9027 43.9379L69.0651 43.9372Z" fill="#193566"/>
</svg>
