<svg width="101" height="105" viewBox="0 0 101 105" fill="none" xmlns="http://www.w3.org/2000/svg">
<path d="M39.5366 104.05C61.3721 104.05 79.0733 86.3486 79.0733 64.5131C79.0733 42.6777 61.3721 24.9765 39.5366 24.9765C17.7012 24.9765 0 42.6777 0 64.5131C0 86.3486 17.7012 104.05 39.5366 104.05Z" fill="#EDEFF3"/>
<path d="M48.0079 78.8702C54.3408 86.9116 62.0894 94.5701 71.4203 100.41C79.2582 79.8355 100.078 79.1007 100.078 58.7709C77.2988 55.5867 66.5215 34.0728 50.3557 33.338C45.4569 43.1354 31.2335 57.57 48.0079 78.8702Z" fill="#D4DCE6"/>
<path d="M39.0687 2.06805C45.2678 2.06805 50.4881 6.63582 51.4669 12.5087L51.4778 12.6926C51.604 14.2262 52.7895 23.4678 53.0983 26.8645C53.0983 27.5171 52.772 28.1696 52.1195 28.1696H25.6917C25.1012 28.1696 24.5976 27.8708 24.7128 27.1908L24.8461 25.839C25.303 21.4472 26.3785 12.7663 26.6705 12.1824C27.9755 6.63582 32.8696 2.06805 39.0687 2.06805ZM67.8827 7.17925L69.5704 11.6799C69.7579 12.0549 70.133 12.43 70.508 12.6175L75.0087 14.3052C75.7588 14.4927 75.7588 15.6179 75.0087 15.8054L70.508 17.4932C70.133 17.6807 69.7579 18.0557 69.5704 18.4308L67.8827 22.9314C67.6952 23.6815 66.57 23.6815 66.3825 22.9314L64.6947 18.4308C64.5072 18.0557 64.1322 17.6807 63.7571 17.4932L59.2565 15.8054C58.5064 15.6179 58.5064 14.4927 59.2565 14.3052L63.7571 12.6175C64.1322 12.43 64.5072 12.0549 64.6947 11.6799L66.3825 7.17925C66.7575 6.42915 67.6952 6.42915 67.8827 7.17925ZM80.4075 0.323042L81.5721 3.23482C81.7596 3.42234 81.9471 3.79739 82.1346 3.79739L84.9475 4.92255C85.3226 5.11007 85.3226 5.67265 84.9475 5.86018L82.3222 7.17285C82.1346 7.36038 81.7596 7.54791 81.7596 7.73543L80.4469 10.5483C80.2594 10.9234 79.6968 10.9234 79.5093 10.5483L78.3841 7.73543C78.1966 7.54791 78.0091 7.17285 77.8215 7.17285L74.8211 5.86018C74.4461 5.67265 74.4461 5.11007 74.8211 4.92255L77.634 3.79739C77.8215 3.60987 78.1966 3.42234 78.1966 3.23482L79.3217 0.421933C79.6734 -0.105483 80.1898 -0.138447 80.4075 0.323042Z" fill="#000F38"/>
<path d="M46.5726 33.2449V54.9751H29.2803V33.2449H46.5726ZM34.7445 10.8243C35.2197 11.5951 35.9796 12.3781 37.1107 13.1612C40.2889 15.5449 44.972 17.7135 48.1932 16.7004C47.9552 23.3626 43.8099 30.1273 38.7421 30.1273C33.5218 30.1273 29.2803 23.2756 29.2803 16.0977C29.2803 15.4321 29.3492 14.7877 29.4804 14.1699C31.1067 12.1955 33.4143 11.2386 34.7445 10.8243Z" fill="white"/>
<path d="M38.0896 37.3051C38.0896 36.6869 39.2609 36.6544 39.3842 37.2075L39.3947 37.3051L41.4246 48.1327L38.7421 50.6822L36.0596 48.1327L38.0896 37.3051Z" fill="#586F97"/>
<path d="M50.8692 33.211C52.7717 33.2657 54.6513 34.3084 55.7087 36.0001L68.3193 63.8614L68.4332 64.0593C69.0857 65.3643 68.7594 66.6694 68.1069 67.6482L57.0137 84.288C56.9401 84.3862 56.8627 84.4789 56.7821 84.5658L58.3188 91.1396C58.3188 91.7922 57.9925 92.4447 57.34 92.4447C55.8737 92.6762 54.4119 92.8804 52.9537 93.0571L52.2811 101.951C48.4792 103.245 44.417 103.976 40.1938 104.044L40.0845 93.9069C39.0825 93.9172 38.0805 93.9143 37.0784 93.8984L36.9703 103.968C32.8273 103.702 28.8578 102.799 25.1592 101.354L24.5287 93.0168C23.1797 92.8495 21.8276 92.6588 20.4715 92.4447C19.8625 92.4447 19.5377 91.8763 19.4971 91.27L19.4927 91.1396L20.9689 84.4526L20.7978 84.288L9.70464 67.6482C9.0521 66.6694 9.0521 65.3643 9.37837 64.0593L9.70464 63.4067L21.2391 37.842C21.4103 37.2701 21.6577 36.7402 21.9681 36.2601C23.0049 34.3073 24.9533 33.1784 27.0256 33.211C27.3159 33.2156 29.5902 33.2156 33.8486 33.211L32.2172 44.4831L38.7426 50.6822L45.268 44.4831L43.6367 33.211C48.1414 33.2019 50.5523 33.2019 50.8692 33.211ZM54.4236 56.611L54.0785 57.7329L53.7626 58.8004C52.8792 61.8517 52.2667 64.5797 52.425 65.8779L52.446 66.0169L54.7391 75.8293L59.6002 65.5843L54.4236 56.611ZM23.2417 57.1911L18.2177 65.8995L22.8881 75.7593L25.0393 66.0169C25.3013 64.5762 24.4066 60.9801 23.2417 57.1911Z" fill="#193566"/>
</svg>
